<!-- Generated by IcoMoon.io -->
<svg version="1.1" xmlns="http://www.w3.org/2000/svg" width="1024" height="1024" viewBox="0 0 1024 1024">
<title></title>
<g id="icomoon-ignore">
</g>
<path fill="#000" d="M386 323.2c0 52.136 42.264 94.4 94.4 94.4s94.4-42.264 94.4-94.4v0c0-52.136-42.264-94.4-94.4-94.4s-94.4 42.264-94.4 94.4v0z"></path>
<path fill="#000" d="M638 134.4c0 52.136 42.264 94.4 94.4 94.4s94.4-42.264 94.4-94.4v0c0-52.136-42.264-94.4-94.4-94.4s-94.4 42.264-94.4 94.4v0z"></path>
<path fill="#000" d="M355.2 417.6c-20-26.4-32-58.8-32-94.4 0-10.8 1.2-21.2 3.2-31.6-67.2 0-223.6 0-223.6 0s-62.8 0-62.8 63.2c0 24.4 0 377.6 0 377.6h188.8v-188.8c0-125.6 126-125.6 126-125.6h0.4z"></path>
<path fill="#000" d="M134.4 134.4c0 52.136 42.264 94.4 94.4 94.4s94.4-42.264 94.4-94.4v0c0-52.136-42.264-94.4-94.4-94.4s-94.4 42.264-94.4 94.4v0z"></path>
<path fill="#000" d="M921.2 522.8v-168c0 0 0-62.8-62.8-62.8h-223.6c2 10.4 3.2 20.8 3.2 31.6 0 35.6-12.4 68-32 94.4h0.8c15.2 0 27.6 2.4 39.2 5.6-46 9.2-87.6 29.2-122.8 57.6-73.6 0-168.4 0-168.4 0s-62.8 0-62.8 62.8c0 24.4 0 377.6 0 377.6h231.2c48.4 39.2 110.4 62.8 177.6 62.8 156.4 0 283.2-126.8 283.2-283.2 0-68-23.6-129.6-62.8-178.4zM700.8 917.2c-119.6-0.4-216.4-96.8-216.8-216.4 0.4-119.6 97.2-216.4 216.8-216.8 119.6 0.4 216.4 97.2 216.4 216.8s-96.8 216.4-216.4 216.4z"></path>
<path fill="#000" d="M732.4 543.6h-63.2v125.6h-125.6v63.2h125.6v125.6h63.2v-125.6h125.6v-63.2h-125.6z"></path>
</svg>
