<!-- Generated by IcoMoon.io -->
<svg version="1.1" xmlns="http://www.w3.org/2000/svg" width="1152" height="1024" viewBox="0 0 1152 1024">
<title></title>
<g id="icomoon-ignore">
</g>
<path fill="#000" d="M128 64c-70.6 0-128 57.4-128 128v640c0 70.6 57.4 128 128 128h896c70.6 0 128-57.4 128-128v-640c0-70.6-57.4-128-128-128h-896zM288 576h128c88.4 0 160 71.6 160 160 0 17.6-14.4 32-32 32h-384c-17.6 0-32-14.4-32-32 0-88.4 71.6-160 160-160zM224 384c0-70.692 57.308-128 128-128s128 57.308 128 128v0c0 70.692-57.308 128-128 128s-128-57.308-128-128v0zM736 320h256c17.6 0 32 14.4 32 32s-14.4 32-32 32h-256c-17.6 0-32-14.4-32-32s14.4-32 32-32zM736 448h256c17.6 0 32 14.4 32 32s-14.4 32-32 32h-256c-17.6 0-32-14.4-32-32s14.4-32 32-32zM736 576h256c17.6 0 32 14.4 32 32s-14.4 32-32 32h-256c-17.6 0-32-14.4-32-32s14.4-32 32-32z"></path>
</svg>
