<!-- Generated by IcoMoon.io -->
<svg version="1.1" xmlns="http://www.w3.org/2000/svg" width="1024" height="1024" viewBox="0 0 1024 1024">
<title></title>
<g id="icomoon-ignore">
</g>
<path fill="#000" d="M832 416c0 91.8-29.8 176.6-80 245.4l253.2 253.4c25 25 25 65.6 0 90.6s-65.6 25-90.6 0l-253.2-253.4c-68.8 50.4-153.6 80-245.4 80-229.8 0-416-186.2-416-416s186.2-416 416-416 416 186.2 416 416zM416 704c159.058 0 288-128.942 288-288s-128.942-288-288-288v0c-159.058 0-288 128.942-288 288s128.942 288 288 288v0z"></path>
</svg>
