<!-- Generated by IcoMoon.io -->
<svg version="1.1" xmlns="http://www.w3.org/2000/svg" width="1280" height="1024" viewBox="0 0 1280 1024">
<title></title>
<g id="icomoon-ignore">
</g>
<path fill="#000" d="M144 176c0-61.856 50.144-112 112-112s112 50.144 112 112v0c0 61.856-50.144 112-112 112s-112-50.144-112-112v0zM128 491.4c-20 22.4-32 52.2-32 84.6s12 62.2 32 84.6v-169.2zM416.8 392.8c-59.4 52.6-96.8 129.6-96.8 215.2 0 68.6 24 131.6 64 181v43c0 35.4-28.6 64-64 64h-128c-35.4 0-64-28.6-64-64v-53.6c-75.6-36-128-113-128-202.4 0-123.8 100.2-224 224-224h64c48 0 92.4 15 128.8 40.6zM896 832v-43c40-49.4 64-112.4 64-181 0-85.6-37.4-162.6-96.8-215.4 36.4-25.6 80.8-40.6 128.8-40.6h64c123.8 0 224 100.2 224 224 0 89.4-52.4 166.4-128 202.4v53.6c0 35.4-28.6 64-64 64h-128c-35.4 0-64-28.6-64-64zM912 176c0-61.856 50.144-112 112-112s112 50.144 112 112v0c0 61.856-50.144 112-112 112s-112-50.144-112-112v0zM1152 491.4v169.4c20-22.6 32-52.2 32-84.6s-12-62.2-32-84.6zM640 64c70.692 0 128 57.308 128 128s-57.308 128-128 128v0c-70.692 0-128-57.308-128-128s57.308-128 128-128v0zM480 608c0 32.4 12 62 32 84.6v-169.2c-20 22.6-32 52.2-32 84.6zM768 523.4v169.4c20-22.6 32-52.2 32-84.6s-12-62.2-32-84.6zM896 608c0 89.4-52.4 166.4-128 202.4v85.6c0 35.4-28.6 64-64 64h-128c-35.4 0-64-28.6-64-64v-85.6c-75.6-36-128-113-128-202.4 0-123.8 100.2-224 224-224h64c123.8 0 224 100.2 224 224z"></path>
</svg>
